<svg aria-hidden="true" style="position: absolute; width: 0; height: 0; overflow: hidden;" version="1.1" xmlns="http://www.w3.org/2000/svg" xmlns:xlink="http://www.w3.org/1999/xlink">
<defs>
<symbol id="trash" viewBox="0 0 32 32">
<path stroke-linejoin="round" stroke-linecap="round" stroke-miterlimit="4" stroke-width="2.6667" d="M12 4h8M4 8h24M25.333 8l-0.935 14.027c-0.14 2.103-0.21 3.156-0.665 3.954-0.406 0.702-0.997 1.257-1.708 1.607l-0.023 0.010c-0.825 0.402-1.881 0.402-3.989 0.402h-4.025c-2.108 0-3.164 0-3.989-0.4-0.734-0.361-1.326-0.917-1.721-1.6l-0.010-0.019c-0.455-0.798-0.524-1.849-0.665-3.956l-0.935-14.025"></path>
</symbol>
<symbol id="eye-off" viewBox="0 0 32 32">
<path stroke-linejoin="round" stroke-linecap="round" stroke-miterlimit="4" stroke-width="2.88" d="M23.92 23.92c-2.175 1.672-4.923 2.697-7.908 2.747l-0.012 0c-9.334 0-14.667-10.667-14.667-10.667 1.713-3.152 3.978-5.791 6.689-7.877l0.058-0.043M13.2 5.654c0.833-0.203 1.788-0.32 2.771-0.32 0.010 0 0.020 0 0.030 0h-0.002c9.333 0 14.666 10.666 14.666 10.666-0.871 1.616-1.826 3.009-2.91 4.291l0.030-0.036M18.826 18.827c-0.732 0.785-1.771 1.274-2.925 1.274-1.105 0-2.105-0.448-2.828-1.173l-0-0c-0.724-0.724-1.171-1.724-1.171-2.828 0-1.154 0.488-2.193 1.27-2.923l0.002-0.002M1.333 1.333l29.333 29.334"></path>
</symbol>
<symbol id="eye" viewBox="0 0 32 32">
<path stroke-linejoin="round" stroke-linecap="round" stroke-miterlimit="4" stroke-width="2.88" d="M1.333 16s5.333-10.667 14.667-10.667c9.333 0 14.666 10.667 14.666 10.667s-5.333 10.667-14.666 10.667c-9.334 0-14.667-10.667-14.667-10.667z"></path>
<path stroke-linejoin="round" stroke-linecap="round" stroke-miterlimit="4" stroke-width="2.88" d="M16 20c2.209 0 4-1.791 4-4s-1.791-4-4-4v0c-2.209 0-4 1.791-4 4s1.791 4 4 4v0z"></path>
</symbol>
<symbol id="arrow" viewBox="0 0 32 32">
<path stroke-linejoin="round" stroke-linecap="round" stroke-miterlimit="4" stroke-width="2.6667" d="M9.333 22.667l13.333-13.333M9.333 9.333h13.333v13.333"></path>
</symbol>
<symbol id="close" viewBox="0 0 32 32">
<path stroke-linejoin="round" stroke-linecap="round" stroke-miterlimit="4" stroke-width="2.6667" d="M24 8l-16 16M8 8l16 16"></path>
</symbol>
<symbol id="heart" viewBox="0 0 32 32">
<path stroke-linejoin="round" stroke-linecap="round" stroke-miterlimit="4" stroke-width="2.6667" d="M27.787 6.146c-1.327-1.328-3.161-2.149-5.187-2.149s-3.859 0.821-5.187 2.149l-1.413 1.413-1.413-1.413c-1.325-1.315-3.151-2.128-5.166-2.128-4.051 0-7.335 3.284-7.335 7.335 0 2.015 0.813 3.841 2.128 5.167l11.786 11.786 11.787-11.787c1.328-1.327 2.149-3.161 2.149-5.187s-0.821-3.859-2.149-5.187l-0-0z"></path>
</symbol>
<symbol id="facebook" viewBox="0 0 32 32">
<path d="M19.52 4.64h0.96v3.6h-1.2c-0.48 0-0.96 0-1.2 0.24s-0.24 0.48-0.24 1.040v1.28h2.64v3.040h-2.64v13.2h-4.080v-13.28h-2.16v-3.040h2.16v-1.040c0-1.76 0.24-3.040 0.72-3.6 0.72-1.040 2.16-1.52 4.32-1.52 0.24 0.080 0.48 0.080 0.72 0.080z"></path>
</symbol>
<symbol id="youtube" viewBox="0 0 32 32">
<path d="M30.112 9.357s-0.288-2.080-1.152-2.973c-1.056-1.187-2.304-1.187-2.88-1.286-4.032-0.298-10.080-0.298-10.080-0.298s-6.048 0-10.080 0.298c-0.576 0.099-1.824 0.099-2.88 1.286-0.864 0.893-1.152 2.973-1.152 2.973s-0.288 2.376-0.288 4.754v2.179c0 2.378 0.288 4.853 0.288 4.853s0.288 2.080 1.152 2.971c1.056 1.189 2.496 1.189 3.168 1.288 2.304 0.099 9.792 0.198 9.792 0.198s6.048 0 10.080-0.298c0.576-0.099 1.824-0.099 2.88-1.288 0.864-0.891 1.152-2.971 1.152-2.971s0.288-2.376 0.288-4.754v-2.179c0-2.378-0.288-4.754-0.288-4.754zM13.024 19.062v-8.32l7.776 4.16-7.776 4.16z"></path>
</symbol>
<symbol id="instagram" viewBox="0 0 32 32">
<path d="M28.717 10.755c-0.016-1.134-0.233-2.212-0.617-3.207l0.021 0.063c-0.681-1.722-2.021-3.059-3.7-3.722l-0.044-0.015c-0.921-0.355-1.985-0.572-3.097-0.595l-0.010-0c-1.366-0.062-1.798-0.078-5.27-0.078s-3.917 0-5.274 0.078c-1.062 0.022-2.112 0.224-3.107 0.595-1.723 0.678-3.062 2.016-3.727 3.693l-0.015 0.044c-0.357 0.919-0.573 1.981-0.595 3.092l-0 0.009c-0.062 1.366-0.082 1.8-0.082 5.264 0 3.467 0 3.91 0.080 5.267 0.021 1.061 0.221 2.109 0.595 3.104 0.682 1.721 2.021 3.057 3.7 3.719l0.044 0.015c0.918 0.37 1.98 0.602 3.091 0.64l0.016 0c1.368 0.058 1.802 0.078 5.274 0.078s3.917 0 5.274-0.080c1.122-0.022 2.188-0.238 3.173-0.615l-0.064 0.022c1.722-0.68 3.060-2.017 3.727-3.693l0.016-0.044c0.356-0.92 0.573-1.983 0.595-3.095l0-0.009c0.061-1.365 0.080-1.798 0.080-5.264-0.003-3.467-0.003-3.907-0.083-5.264zM15.99 22.531c-0.002 0-0.005 0-0.008 0-3.624 0-6.562-2.936-6.565-6.56v-0c0-3.626 2.942-6.562 6.573-6.562 0.001 0 0.003 0 0.005 0 3.624 0 6.563 2.936 6.566 6.56v0c0 3.626-2.944 6.562-6.571 6.562zM22.822 10.696c-0.845 0-1.53-0.685-1.53-1.53s0.685-1.53 1.53-1.53v0c0.845 0 1.53 0.685 1.53 1.53s-0.685 1.53-1.53 1.53v0z"></path>
<path d="M15.992 19.976c2.211 0 4.004-1.793 4.004-4.004s-1.793-4.004-4.004-4.004v0c-2.211 0-4.004 1.793-4.004 4.004s1.793 4.004 4.004 4.004v0z"></path>
</symbol>
<symbol  id="photo" viewBox="0 0 50 50">
<path d="M44.0474 17.857V10.6998C44.0474 9.43937 43.5476 8.23032 42.6577 7.3377C41.7678 6.44508 40.5602 5.94171 39.2998 5.93793L32.1426 5.9165M44.0474 32.1427V39.2856C44.0474 40.5485 43.5457 41.7597 42.6526 42.6527C41.7596 43.5458 40.5484 44.0475 39.2855 44.0475H32.1426M17.8569 5.9165L10.6998 5.94031C9.43931 5.94409 8.23177 6.44746 7.34182 7.34008C6.45188 8.23271 5.95214 9.44175 5.95215 10.7022V17.857M17.8569 44.0475H10.7141C9.45112 44.0475 8.23991 43.5458 7.34688 42.6527C6.45385 41.7597 5.95215 40.5485 5.95215 39.2856V32.1427" stroke="#050505" stroke-opacity="0.2" stroke-linecap="round" stroke-linejoin="round" fill="#050505" fill-opacity="0.2"/>
<path d="M25 29.2969C25.9766 29.2969 26.8068 28.9552 27.4906 28.2719C28.174 27.588 28.5156 26.7578 28.5156 25.7812C28.5156 24.8047 28.174 23.9745 27.4906 23.2906C26.8068 22.6073 25.9766 22.2656 25 22.2656C24.0234 22.2656 23.1932 22.6073 22.5094 23.2906C21.826 23.9745 21.4844 24.8047 21.4844 25.7812C21.4844 26.7578 21.826 27.588 22.5094 28.2719C23.1932 28.9552 24.0234 29.2969 25 29.2969ZM18.75 32.0312C18.3203 32.0312 17.9526 31.8784 17.6469 31.5727C17.3406 31.2664 17.1875 30.8984 17.1875 30.4688V21.0938C17.1875 20.6641 17.3406 20.2964 17.6469 19.9906C17.9526 19.6844 18.3203 19.5312 18.75 19.5312H21.2109L22.6562 17.9688H27.3438L28.7891 19.5312H31.25C31.6797 19.5312 32.0477 19.6844 32.3539 19.9906C32.6596 20.2964 32.8125 20.6641 32.8125 21.0938V30.4688C32.8125 30.8984 32.6596 31.2664 32.3539 31.5727C32.0477 31.8784 31.6797 32.0312 31.25 32.0312H18.75Z" fill="#050505" fill-opacity="0.2"/>
</symbol>
</defs>
</svg>
